<svg xmlns="http://www.w3.org/2000/svg" xmlns:xlink="http://www.w3.org/1999/xlink" width="34" height="40" viewBox="0 0 34 40"><defs><path id="9goya" d="M924.62 2387.38c2.82 0 5.27 1.35 7.34 4.06a8.25 8.25 0 0 0-4.03 5.1 9.09 9.09 0 0 0 .51 6.46 8.26 8.26 0 0 0 4.66 4.38 30.9 30.9 0 0 1-2.48 4.79c-2.49 3.89-4.73 5.83-6.73 5.83h-.1a7.5 7.5 0 0 1-2.95-.83 8.49 8.49 0 0 0-3.57-.84 8.7 8.7 0 0 0-3.67.84 7.5 7.5 0 0 1-2.95.83h-.1c-2.07 0-4.28-1.84-6.62-5.52a24.36 24.36 0 0 1-3.83-11.04c-.35-3.9.2-6.91 1.65-9.07 2.07-3.33 4.76-5 8.07-5a12 12 0 0 1 3.88.84c1.55.55 2.71.83 3.47.83.69 0 1.8-.28 3.3-.83 1.53-.56 2.9-.84 4.15-.84zm-.83-9.38a8.87 8.87 0 0 1-1.86 6.46c-1.59 2.08-3.52 3.12-5.8 3.12h-.1c-.34-2.01.28-4.1 1.86-6.25 1.73-2.08 3.7-3.2 5.9-3.33z"/></defs><g><g transform="translate(-900 -2378)"><use fill="#fff" xlink:href="#9goya"/></g></g></svg>