<svg xmlns="http://www.w3.org/2000/svg" xmlns:xlink="http://www.w3.org/1999/xlink" width="17" height="28" viewBox="0 0 17 28"><defs><path id="uep8a" d="M1512.28 4185.22c-.2.19-.45.28-.78.28s-.6-.1-.81-.32a1.1 1.1 0 0 1-.32-.8v-22.01l-4.88 4.78c-.52.56-1.05.57-1.6.03-.53-.54-.52-1.06.04-1.58l6.8-6.75c.09-.14.2-.23.35-.28a1.34 1.34 0 0 1 .84 0c.15.05.26.14.36.28l6.79 6.75c.56.52.57 1.04.03 1.58-.54.54-1.07.53-1.59-.03l-4.88-4.78v22c0 .33-.12.61-.35.85z"/></defs><g><g transform="translate(-1503 -4158)"><use fill="#fff" xlink:href="#uep8a"/></g></g></svg>