<svg xmlns="http://www.w3.org/2000/svg" xmlns:xlink="http://www.w3.org/1999/xlink" width="27" height="16" viewBox="0 0 27 16"><defs><path id="hoswa" d="M1465.28 4046.22c-.19.2-.28.45-.28.78s.1.6.32.81c.2.22.48.32.8.32h22.01l-4.78 4.88c-.56.52-.57 1.05-.03 1.6.54.53 1.06.52 1.58-.04l6.75-6.8c.14-.09.23-.2.28-.35a1.34 1.34 0 0 0 0-.84.68.68 0 0 0-.28-.36l-6.75-6.79c-.52-.56-1.04-.57-1.58-.03-.54.54-.53 1.07.03 1.59l4.78 4.88h-22c-.33 0-.61.12-.85.35z"/></defs><g><g transform="translate(-1465 -4039)"><use fill="#3183fb" xlink:href="#hoswa"/></g></g></svg>