<svg xmlns="http://www.w3.org/2000/svg" xmlns:xlink="http://www.w3.org/1999/xlink" width="23" height="25" viewBox="0 0 23 25"><defs><path id="oipxa" d="M690.79 1079.16c-.3-.3-.46-.67-.46-1.1v-1.56c0-.42.16-.79.46-1.1.3-.3.66-.46 1.08-.46h1.53c.42 0 .77.15 1.08.46.3.31.45.68.45 1.1v1.56c0 .43-.15.8-.45 1.1-.3.31-.66.46-1.08.46h-1.53c-.42 0-.78-.15-1.08-.46zm1.08-1.1h1.53v-1.56h-1.53zm5.23-11.58c.6.6.9 1.34.9 2.2v17.2c0 .86-.3 1.6-.9 2.2-.6.61-1.32.92-2.17.92h-16.86c-.85 0-1.57-.3-2.17-.92-.6-.6-.9-1.34-.9-2.2v-17.2c0-.86.3-1.6.9-2.2.6-.61 1.32-.92 2.17-.92h3.06v-.78c0-.21.08-.4.23-.55a.73.73 0 0 1 .54-.23c.2 0 .39.08.54.23.15.16.23.34.23.55v.78h7.66v-.78c0-.21.08-.4.23-.55a.73.73 0 0 1 .54-.23c.2 0 .39.08.54.23.15.16.23.34.23.55v.78h3.06c.85 0 1.57.3 2.17.92zm-.63 5.33h-19.94v14.07c0 .42.16.78.46 1.1.3.3.66.46 1.08.46h16.86c.42 0 .78-.16 1.08-.47.3-.3.46-.67.46-1.1zm0-3.12c0-.43-.16-.8-.46-1.1-.3-.31-.66-.46-1.08-.46h-3.06v.78c0 .2-.08.4-.23.55a.73.73 0 0 1-.54.23.73.73 0 0 1-.54-.23.76.76 0 0 1-.23-.55v-.79h-7.66v.79c0 .2-.08.4-.23.55a.73.73 0 0 1-.54.23.73.73 0 0 1-.54-.23.76.76 0 0 1-.23-.55v-.79h-3.06c-.42 0-.78.16-1.08.47-.3.3-.46.67-.46 1.1v1.56h19.94zm-17.95 16.72c-.3-.3-.45-.67-.45-1.1v-1.56c0-.42.15-.79.45-1.1.3-.3.66-.46 1.08-.46h1.53c.42 0 .78.15 1.08.46.3.31.46.68.46 1.1v1.56c0 .43-.16.8-.46 1.1-.3.31-.66.46-1.08.46h-1.53c-.42 0-.77-.15-1.08-.46zm1.08-1.1h1.53v-1.56h-1.53zm5.06 1.1c-.3-.3-.46-.67-.46-1.1v-1.56c0-.42.15-.79.46-1.1.3-.3.66-.46 1.07-.46h1.54c.41 0 .77.15 1.07.46.3.31.46.68.46 1.1v1.56c0 .43-.15.8-.46 1.1-.3.31-.66.46-1.07.46h-1.54c-.41 0-.77-.15-1.07-.46zm1.07-1.1h1.54v-1.56h-1.54zm5.06 1.1c-.3-.3-.46-.67-.46-1.1v-1.56c0-.42.16-.79.46-1.1.3-.3.66-.46 1.08-.46h1.53c.42 0 .77.15 1.08.46.3.31.45.68.45 1.1v1.56c0 .43-.15.8-.45 1.1-.3.31-.66.46-1.08.46h-1.53c-.42 0-.78-.15-1.08-.46zm1.08-1.1h1.53v-1.56h-1.53zm-7.21-5.15c-.3-.3-.46-.67-.46-1.1v-1.56c0-.42.15-.79.46-1.1.3-.3.66-.46 1.07-.46h1.54c.41 0 .77.15 1.07.46.3.31.46.68.46 1.1v1.56c0 .43-.15.8-.46 1.1-.3.31-.66.46-1.07.46h-1.54c-.41 0-.77-.15-1.07-.46zm1.07-1.1h1.54v-1.56h-1.54zm-7.2 1.1c-.31-.3-.46-.67-.46-1.1v-1.56c0-.42.15-.79.45-1.1.3-.3.66-.46 1.08-.46h1.53c.42 0 .78.15 1.08.46.3.31.46.68.46 1.1v1.56c0 .43-.16.8-.46 1.1-.3.31-.66.46-1.08.46h-1.53c-.42 0-.77-.15-1.08-.46zm1.07-1.1h1.53v-1.56h-1.53z"/></defs><g><g transform="translate(-675 -1064)"><use fill="#8989f2" xlink:href="#oipxa"/></g></g></svg>