<svg xmlns="http://www.w3.org/2000/svg" xmlns:xlink="http://www.w3.org/1999/xlink" width="27" height="27" viewBox="0 0 27 27"><defs><path id="9pe9a" d="M1299.06 4252.04c.67-.94.99-1.6.93-2-.05-.39-.33-.85-.86-1.37-.57-.63-1.45-1.3-2.65-2a6.28 6.28 0 0 0-2.97-1.06c-.21 0-.42.06-.63.16-1.51.94-2.48 1.41-2.9 1.41-.41 0-1-.34-1.8-1.02h-.07a19.7 19.7 0 0 1-2.34-2.27l-.16-.16a2.33 2.33 0 0 0-.31-.23c-.16-.16-.86-.94-2.11-2.35v-.08c-.89-1-1.36-1.73-1.41-2.2-.05-.62.36-1.51 1.25-2.66.89-1.15.08-3.21-2.42-6.2l-.08-.07c-.52-.63-1.1-.94-1.72-.94-.42 0-1.02.24-1.8.7l-.16.08a3.74 3.74 0 0 0-1.64 1.88c-.52 1.57-.08 3.64 1.33 6.2a36.38 36.38 0 0 0 5.94 8.15 42.78 42.78 0 0 0 5.94 5.01c2.77 1.99 4.96 2.98 6.57 2.98.94 0 1.67-.1 2.19-.31s1.15-.76 1.88-1.65z"/></defs><g><g transform="translate(-1274 -4228)"><use fill="#fff" fill-opacity="0" stroke="#fff" stroke-miterlimit="50" stroke-width="2" xlink:href="#9pe9a"/></g></g></svg>