<svg xmlns="http://www.w3.org/2000/svg" xmlns:xlink="http://www.w3.org/1999/xlink" width="20" height="20" viewBox="0 0 20 20"><defs><path id="uskoa" d="M685.01 1103.96v6l5.26 3.2.75-1.27-4.5-2.68v-5.25zm-4.67 10.68a7.72 7.72 0 0 1-2.37-5.66c0-2.2.8-4.08 2.37-5.66a7.72 7.72 0 0 1 5.66-2.37c2.2 0 4.08.8 5.66 2.37a7.72 7.72 0 0 1 2.37 5.66c0 2.2-.8 4.08-2.37 5.66A7.72 7.72 0 0 1 686 1117c-2.2 0-4.08-.8-5.66-2.37zm-1.4-12.73a9.63 9.63 0 0 0-2.94 7.07c0 2.75.98 5.11 2.93 7.07a9.63 9.63 0 0 0 7.07 2.93c2.75 0 5.11-.98 7.07-2.93a9.63 9.63 0 0 0 2.93-7.07c0-2.75-.98-5.11-2.93-7.07a9.63 9.63 0 0 0-7.07-2.93c-2.75 0-5.11.98-7.07 2.93z"/></defs><g><g transform="translate(-676 -1099)"><use fill="#8989f2" xlink:href="#uskoa"/></g></g></svg>