<svg xmlns="http://www.w3.org/2000/svg" xmlns:xlink="http://www.w3.org/1999/xlink" width="24" height="19" viewBox="0 0 24 19"><defs><path id="fzbsa" d="M1846 42a1 1 0 0 1 .99-1H1869a1 1 0 0 1 .99 1 1 1 0 0 1-.99 1H1847a1 1 0 0 1-.99-1zm0 8a1 1 0 0 1 1-1h11.15a1 1 0 0 1 .98 1 1 1 0 0 1-.98 1h-11.16a1 1 0 0 1-.99-1zm0 9a1 1 0 0 1 .99-1H1869a1 1 0 0 1 .99 1 1 1 0 0 1-.99 1H1847a1 1 0 0 1-.99-1z"/><clipPath id="fzbsb"><use fill="#fff" xlink:href="#fzbsa"/></clipPath></defs><g><g transform="translate(-1846 -41)"><use fill="#fff" fill-opacity="0" stroke="#fff" stroke-linecap="round" stroke-miterlimit="50" stroke-width="4" clip-path="url(&quot;#fzbsb&quot;)" xlink:href="#fzbsa"/></g></g></svg>