<svg xmlns="http://www.w3.org/2000/svg" xmlns:xlink="http://www.w3.org/1999/xlink" width="37" height="40" viewBox="0 0 37 40"><defs><path id="ozh1a" d="M1131.44 2398.02l-19.28 18.08a4 4 0 0 1-.16-1.1v-34c0-.41.07-.77.16-1.11l19.28 18.13zm1.85-1.73l-19.37-18.21a3.33 3.33 0 0 1 2.53.49l22.52 12.4zm13.93 4.43l-5.84 3.17-6.27-5.9 6.15-5.76 6.01 3.3c1.77.99 2.8 3.58-.05 5.19zm-13.96-1l5.78 5.44-22.59 12.27a3.3 3.3 0 0 1-2.58.47l19.39-18.17z"/></defs><g><g transform="translate(-1112 -2378)"><use fill="#fff" xlink:href="#ozh1a"/></g></g></svg>