<svg xmlns="http://www.w3.org/2000/svg" xmlns:xlink="http://www.w3.org/1999/xlink" width="15" height="16" viewBox="0 0 15 16"><defs><path id="692ca" d="M1333.55 4187.74v6.41a3.88 3.88 0 0 1-3.8 3.95h-6.16a3.88 3.88 0 0 1-3.8-3.95v-6.4a3.88 3.88 0 0 1 3.8-3.96h6.16a3.88 3.88 0 0 1 3.8 3.95zm-1.22 6.41v-6.4a2.63 2.63 0 0 0-2.58-2.69h-6.16a2.63 2.63 0 0 0-2.58 2.68v6.41a2.63 2.63 0 0 0 2.58 2.68h6.16a2.63 2.63 0 0 0 2.58-2.68zm-5.66-6.89c2 .05 3.58 1.7 3.54 3.69a3.69 3.69 0 1 1-3.54-3.69zm0 6.1a2.38 2.38 0 0 0 2.32-2.41 2.42 2.42 0 1 0-2.32 2.42zm4.32-6.9c.36.36.36.94 0 1.31a.87.87 0 0 1-1.26 0 .96.96 0 0 1 0-1.32.9.9 0 0 1 .63-.27c.24 0 .47.1.63.27z"/></defs><g><g transform="translate(-1319 -4183)"><use fill="#fff" xlink:href="#692ca"/></g></g></svg>