<?xml version="1.0" encoding="utf-8"?>
<!-- Generator: Adobe Illustrator 21.0.1, SVG Export Plug-In . SVG Version: 6.00 Build 0)  -->
<svg version="1.1" id="Слой_1" xmlns="http://www.w3.org/2000/svg" xmlns:xlink="http://www.w3.org/1999/xlink" x="0px" y="0px"
	 viewBox="0 0 332.5 673" style="enable-background:new 0 0 332.5 673;" xml:space="preserve">
<style type="text/css">
	.st0{fill:#2A2A2A;}
	.st1{fill:#FFFFFF;}
</style>
<g id="Bottom">
	<path class="st0" d="M318.6,167.6V51.5c0-21.4-17.5-38.9-38.9-38.9H54.5c-21.4,0-38.9,17.5-38.9,38.9v55.7c-1.7,0.4-3,1.9-3,3.7
		V130c0,1.8,1.3,3.4,3,3.7v21.9c-1.7,0.4-3,1.9-3,3.7v35.8c0,1.8,1.3,3.4,3,3.7v14c-1.7,0.4-3,1.9-3,3.7v35.8c0,1.8,1.3,3.4,3,3.7
		v367.4c0,21.4,17.5,38.9,38.9,38.9h225.1c21.4,0,38.9-17.5,38.9-38.9v-389c1.7-0.4,3-1.9,3-3.7v-59.3
		C321.6,169.5,320.3,168,318.6,167.6z"/>
</g>
<g id="For_Image">
	<path class="st1" d="M282.5,22h-24.9c-4.5,0-8.3,3.3-9.1,7.6l-0.1,0.1c-1,8.4-8.2,14.9-16.8,14.9H167h-64.6
		c-8.6,0-15.8-6.5-16.8-14.9c0,0,0-0.1-0.1-0.1C84.7,25.3,81,22,76.4,22H51.7c-16.6,0-30.1,13.6-30.1,30.2v570.6
		c0,16.6,13.6,30.2,30.1,30.2h115.4h115.4c16.6,0,30.1-13.6,30.1-30.2V52.2C312.6,35.6,299,22,282.5,22z"/>
</g>
</svg>
