<svg xmlns="http://www.w3.org/2000/svg" xmlns:xlink="http://www.w3.org/1999/xlink" width="23" height="20" viewBox="0 0 23 20"><defs><path id="7faoa" d="M1764.94 684.73l-7.44 7.28-7.46-7.3c-1.6-1.62-2.4-3.16-2.4-4.62 0-.7.1-1.32.28-1.86.18-.54.42-.96.7-1.28a3.4 3.4 0 0 1 1.05-.78c.41-.2.81-.33 1.2-.4.4-.07.82-.1 1.27-.1.44 0 .92.1 1.43.33.52.22.99.5 1.42.83a14.96 14.96 0 0 1 1.88 1.74c.16.2.36.29.63.29s.47-.1.63-.29a14.96 14.96 0 0 1 1.88-1.74c.43-.33.9-.61 1.42-.83.51-.22.99-.33 1.43-.33.45 0 .87.03 1.26.1.4.07.8.2 1.2.4.42.2.77.46 1.06.78.28.32.52.74.7 1.28.19.54.28 1.16.28 1.86 0 1.46-.8 3-2.42 4.64zm2.43-9.12c-1.09-1.07-2.59-1.61-4.5-1.61-.54 0-1.08.1-1.63.28-.55.19-1.06.44-1.54.76a11.88 11.88 0 0 0-2.2 1.78 11.88 11.88 0 0 0-2.2-1.78 6.53 6.53 0 0 0-1.54-.76 5.05 5.05 0 0 0-1.62-.28c-1.92 0-3.42.54-4.51 1.61-1.09 1.08-1.63 2.57-1.63 4.48 0 .59.1 1.18.3 1.8a7.94 7.94 0 0 0 1.56 2.85 13.34 13.34 0 0 0 1.07 1.19l8 7.84c.16.15.35.23.57.23.22 0 .41-.08.56-.23l8-7.82c1.96-1.98 2.94-3.94 2.94-5.86 0-1.9-.54-3.4-1.63-4.48z"/></defs><g><g transform="translate(-1746 -674)"><use fill="#fff" xlink:href="#7faoa"/></g></g></svg>