<svg xmlns="http://www.w3.org/2000/svg" xmlns:xlink="http://www.w3.org/1999/xlink" width="58" height="40" viewBox="0 0 58 40"><defs><path id="ik11a" d="M50 50c0-2.24 12.98-20 29-20s29 17.62 29 20c0 1.06-2.6 5.18-6.91 9.4-.33.33-1.02.97-1.02.97l2.86 8.7L93 65.73l-1.16.67C87.98 68.54 83.62 70 79 70c-16.02 0-29-17.76-29-20zm29.17 13.22c7.42 0 13.43-6 13.43-13.4s-6.01-13.39-13.43-13.39c-7.4 0-13.42 6-13.42 13.4s6.01 13.39 13.43 13.39zm-8.05-13.23a7.87 7.87 0 1 1 15.73.03A7.87 7.87 0 0 1 71.12 50z"/></defs><g><g transform="translate(-50 -30)"><use fill="#fff" xlink:href="#ik11a"/></g></g></svg>