<svg xmlns="http://www.w3.org/2000/svg" xmlns:xlink="http://www.w3.org/1999/xlink" width="38" height="33" viewBox="0 0 38 33"><defs><path id="kjmma" d="M1742.07 54.07v4.5c0 .44-.16.82-.47 1.14-.32.32-.7.48-1.13.48h-4.4a.39.39 0 0 0 .4-.4.39.39 0 0 0-.4-.4.39.39 0 0 0-.4.4c0 .11.04.21.11.29.08.07.17.11.29.11h-24.4c-.43 0-.8-.16-1.13-.48-.31-.32-.47-.7-.47-1.14v-4.45a2.3 2.3 0 0 0 1.7-.71c.47-.47.7-1.05.7-1.72 0-.67-.23-1.25-.7-1.72a2.3 2.3 0 0 0-1.7-.7V44.8c0-.44.16-.82.47-1.14.32-.32.7-.48 1.13-.48h24.4a.39.39 0 0 0-.4.4c0 .12.04.22.11.3.08.07.17.11.29.11a.39.39 0 0 0 .4-.4.39.39 0 0 0-.4-.4h4.4c.43-.01.8.15 1.13.47.31.32.47.7.47 1.14v4.4a2.3 2.3 0 0 0-1.7.7c-.47.48-.7 1.05-.7 1.73 0 .67.23 1.25.7 1.72s1.03.7 1.7.7z"/><path id="kjmmb" d="M1735.75 48.72v5.95"/></defs><g><g transform="translate(-1707 -35)"><use fill="#fff" fill-opacity="0" stroke="#fff" stroke-linecap="round" stroke-miterlimit="50" stroke-width="1.7" xlink:href="#kjmma"/></g><g transform="translate(-1707 -35)"><use fill="#fff" fill-opacity="0" stroke="#fff" stroke-linecap="round" stroke-miterlimit="50" stroke-width="1.7" xlink:href="#kjmmb"/></g></g></svg>