<svg xmlns="http://www.w3.org/2000/svg" xmlns:xlink="http://www.w3.org/1999/xlink" width="20" height="20" viewBox="0 0 20 20"><defs><path id="1qgra" d="M1370.92 48.46a8.4 8.4 0 0 1-2.48 5.98 8.4 8.4 0 0 1-5.98 2.48 8.4 8.4 0 0 1-5.98-2.48 8.4 8.4 0 0 1-2.48-5.98 8.4 8.4 0 0 1 2.48-5.98 8.4 8.4 0 0 1 5.98-2.48 8.4 8.4 0 0 1 5.98 2.48 8.4 8.4 0 0 1 2.48 5.98zm-1.61 0a6.85 6.85 0 1 0-13.71.02 6.85 6.85 0 0 0 13.7-.02z"/><path id="1qgrb" d="M1373.73 58.46l-5.12-5.39a.9.9 0 0 0-1.27 1.27l5.12 5.4a.9.9 0 0 0 1.27 0 .9.9 0 0 0 0-1.28z"/></defs><g><g transform="translate(-1354 -40)"><use fill="#fff" xlink:href="#1qgra"/></g><g transform="translate(-1354 -40)"><use fill="#fff" xlink:href="#1qgrb"/></g></g></svg>