<svg xmlns="http://www.w3.org/2000/svg" xmlns:xlink="http://www.w3.org/1999/xlink" width="22" height="20" viewBox="0 0 22 20"><defs><path id="j4c6a" d="M1299.77 1066.64c.15.16.23.34.23.56 0 .22-.08.4-.23.56l-6.29 6.4a.75.75 0 0 1-.55.24.75.75 0 0 1-.55-.24.78.78 0 0 1-.24-.56v-3.2h-2.75c-.8 0-1.52.03-2.15.07-.64.06-1.27.14-1.9.27a5.76 5.76 0 0 0-2.93 1.4c-.4.36-.72.78-.97 1.27a6.87 6.87 0 0 0-.6 1.73c-.14.66-.21 1.42-.21 2.26a21.52 21.52 0 0 0 .12 2.16c0 .13-.03.23-.1.32a.36.36 0 0 1-.3.12c-.12 0-.24-.07-.34-.21a1.42 1.42 0 0 1-.16-.28 24.85 24.85 0 0 1-.3-.67c-1.03-2.38-1.55-4.26-1.55-5.64 0-1.66.22-3.05.65-4.16 1.33-3.36 4.9-5.04 10.74-5.04h2.75v-3.2c0-.22.08-.4.24-.56a.75.75 0 0 1 .55-.24c.21 0 .4.08.55.24z"/></defs><g><g transform="translate(-1278 -1060)"><use fill="#3183fb" xlink:href="#j4c6a"/></g></g></svg>