<svg xmlns="http://www.w3.org/2000/svg" xmlns:xlink="http://www.w3.org/1999/xlink" width="90" height="90" viewBox="0 0 90 90"><defs><path id="5jeca" d="M605 3536a45 45 0 1 1 90 0 45 45 0 0 1-90 0z"/><path id="5jecc" d="M621 3536c0-2.24 12.98-20 29-20s29 17.62 29 20c0 1.06-2.6 5.18-6.91 9.4-.33.33-1.02.97-1.02.97l2.86 8.7-9.92-3.34-1.16.67c-3.87 2.14-8.23 3.6-12.85 3.6-16.02 0-29-17.76-29-20zm29.17 13.22c7.42 0 13.43-6 13.43-13.4s-6.01-13.39-13.43-13.39c-7.4 0-13.42 6-13.42 13.4s6.01 13.39 13.43 13.39zm-8.05-13.22a7.87 7.87 0 1 1 15.73.02 7.87 7.87 0 0 1-15.73-.03z"/><clipPath id="5jecb"><use xlink:href="#5jeca"/></clipPath></defs><g><g transform="translate(-605 -3491)"><use fill="#fff" xlink:href="#5jeca"/></g><g clip-path="url(#5jecb)" transform="translate(-605 -3491)"><use fill="#3183fb" xlink:href="#5jecc"/></g></g></svg>