<svg xmlns="http://www.w3.org/2000/svg" xmlns:xlink="http://www.w3.org/1999/xlink" width="20" height="20" viewBox="0 0 20 20"><defs><path id="p3zla" d="M270.54 59.88l-1.86-5.56-5.56-1.86c-.48-.15-.8-.35-.98-.59a.65.65 0 0 1-.05-.74c.15-.26.44-.5.9-.69l15.43-7.19c.69-.3 1.16-.33 1.41-.08s.22.72-.08 1.41l-7.22 15.43c-.2.46-.42.75-.67.9a.63.63 0 0 1-.73-.05c-.24-.18-.44-.5-.59-.98z"/></defs><g><g transform="translate(-261 -42)"><use fill="#fff" fill-opacity="0" stroke="#fff" stroke-miterlimit="50" stroke-width="2" xlink:href="#p3zla"/></g></g></svg>