<svg xmlns="http://www.w3.org/2000/svg" xmlns:xlink="http://www.w3.org/1999/xlink" width="15" height="12" viewBox="0 0 15 12"><defs><path id="kafga" d="M1308.47 4185.23a5.7 5.7 0 0 1-1.83.74c-.54-.6-1.3-.96-2.11-.96a2.96 2.96 0 0 0-2.88 3.02c0 .24.02.47.07.7a8.07 8.07 0 0 1-5.95-3.17 3.12 3.12 0 0 0 .9 4.04 2.73 2.73 0 0 1-1.31-.38v.04a3 3 0 0 0 2.31 2.97 2.97 2.97 0 0 1-1.3.04 2.9 2.9 0 0 0 2.7 2.1 5.6 5.6 0 0 1-4.28 1.26 7.92 7.92 0 0 0 4.42 1.36c5.31 0 8.21-4.61 8.21-8.6v-.4a5.94 5.94 0 0 0 1.44-1.56c-.53.24-1.09.4-1.66.48.6-.4 1.06-.99 1.27-1.68z"/></defs><g><g transform="translate(-1294 -4185)"><use fill="#fff" xlink:href="#kafga"/></g></g></svg>