<svg xmlns="http://www.w3.org/2000/svg" xmlns:xlink="http://www.w3.org/1999/xlink" width="21" height="12" viewBox="0 0 21 12"><defs><path id="vxswa" d="M1364.9 4185.92c.17.47-.37 1.54-1.63 3.2l-.7.93c-.58.73-.9 1.2-.99 1.43-.12.3-.07.6.15.88.13.16.42.45.89.9h.02v.02l.03.02a10.85 10.85 0 0 1 2.15 2.55c.03.05.05.15.08.29.02.13.02.26 0 .37-.04.1-.13.2-.28.3-.15.09-.37.13-.64.13l-2.8.05c-.17.03-.37.01-.6-.06a2.65 2.65 0 0 1-.57-.24l-.22-.13a5.1 5.1 0 0 1-.76-.7c-.3-.31-.54-.6-.75-.84-.2-.25-.43-.46-.66-.63-.24-.17-.44-.23-.62-.17a.71.71 0 0 0-.08.04 1.39 1.39 0 0 0-.42.48c-.07.12-.13.31-.19.56a3.6 3.6 0 0 0-.07.85 1.1 1.1 0 0 1-.12.5l-.04.05a.87.87 0 0 1-.58.24h-1.25a6.08 6.08 0 0 1-3.02-.76c-.42-.23-.8-.47-1.13-.72-.34-.24-.6-.45-.77-.62l-.27-.26a24.1 24.1 0 0 1-1.08-1.32 27.25 27.25 0 0 1-2.5-3.95c-.5-.95-.98-1.94-1.41-2.96a.87.87 0 0 1-.07-.3c0-.08.01-.13.03-.17l.05-.07c.1-.13.31-.2.62-.2l2.98-.03a1.17 1.17 0 0 1 .43.17l.05.03c.12.08.2.2.27.35a17.2 17.2 0 0 0 .94 2.02l.18.31c.2.44.41.82.6 1.14.2.32.38.56.54.74.15.18.3.32.45.42.14.1.27.15.37.15.1 0 .2-.01.3-.05l.05-.05.13-.24c.06-.14.11-.3.15-.52l.1-.88a8.47 8.47 0 0 0-.1-2.16c-.05-.24-.1-.4-.15-.5l-.07-.13c-.18-.25-.49-.4-.92-.47-.1-.01-.08-.1.05-.26.13-.14.26-.25.42-.33.38-.19 1.25-.27 2.6-.26.6 0 1.09.06 1.47.14.15.04.27.09.37.15.1.06.17.15.22.26a1.7 1.7 0 0 1 .15.85 15.64 15.64 0 0 1-.03 1.36 26.81 26.81 0 0 0-.03 1.36 9.09 9.09 0 0 0 .03.97c.02.17.06.3.13.42.06.11.14.2.24.27l.19.04c.06.02.16-.02.28-.12a3.96 3.96 0 0 0 .98-1.1 17.78 17.78 0 0 0 1.9-3.62.75.75 0 0 1 .12-.2c.04-.05.08-.1.12-.11l.04-.04.06-.02a.88.88 0 0 1 .36-.04l3.13-.02c.29-.04.52-.03.7.02.18.06.3.12.34.18z"/></defs><g><g transform="translate(-1344 -4185)"><use fill="#fff" xlink:href="#vxswa"/></g></g></svg>